G04 ================== begin FILE IDENTIFICATION RECORD ==================*
G04 Layout Name:  SCHEMA_PLACUTA.brd*
G04 Film Name:    BOTTOM*
G04 File Format:  Gerber RS274X*
G04 File Origin:  Cadence Allegro 17.2-S025*
G04 Origin Date:  Sat Jan 24 02:19:36 2026*
G04 *
G04 Layer:  ETCH/BOTTOM*
G04 Layer:  PIN/BOTTOM*
G04 Layer:  VIA CLASS/BOTTOM*
G04 *
G04 Offset:    (0.000 0.000)*
G04 Mirror:    No*
G04 Mode:      Positive*
G04 Rotation:  0*
G04 FullContactRelief:  No*
G04 UndefLineWidth:     0.000*
G04 ================== end FILE IDENTIFICATION RECORD ====================*
%FSLAX25Y25*MOIN*%
%IR0*IPPOS*OFA0.00000B0.00000*MIA0B0*SFA1.00000B1.00000*%
%ADD10C,.024*%
%ADD11C,.026*%
%ADD12C,.016*%
%ADD14C,.034004*%
%ADD13C,.078744*%
G75*
%LPD*%
G75*
G36*
G01X7990Y8298D02*
Y149492D01*
X149296D01*
Y8298D01*
X7990D01*
G37*
%LPC*%
G75*
G36*
G01X105681Y92305D02*
G02X103783Y94203I-1687J211D01*
G01X103851Y94212D01*
X112888Y103248D01*
G03X112650Y103929I-283J283D01*
G02X111155Y105407I192J1689D01*
G01X111146Y105475D01*
X103841Y112780D01*
X93555D01*
G02Y115380I-1095J1300D01*
G01X104919D01*
X112985Y107314D01*
X113053Y107305D01*
G02X114531Y105810I-211J-1687D01*
G03X115212Y105572I397J45D01*
G01X116669Y107030D01*
X132352D01*
G02Y104430I1096J-1300D01*
G01X117747D01*
X105689Y92373D01*
X105681Y92305D01*
G37*
G36*
G01X87713Y85243D02*
X87781Y85252D01*
X95188Y92659D01*
X95197Y92727D01*
G02X97095Y90829I1687J-211D01*
G01X97027Y90820D01*
X89620Y83413D01*
X89611Y83345D01*
G02X87713Y85243I-1687J211D01*
G37*
G36*
G01X141636Y108397D02*
Y83980D01*
G02X139036I-1300J-1095D01*
G01Y107319D01*
X135340Y111015D01*
Y128264D01*
G02X137940I1300J1095D01*
G01Y112093D01*
X141636Y108397D01*
G37*
G36*
G01X14529Y62310D02*
X14702D01*
X14756Y62352D01*
G02X14704Y59710I1044J-1342D01*
G01X13451D01*
X11200Y61961D01*
Y79391D01*
X24759D01*
G02Y76790I1245J-1300D01*
G01X13800D01*
Y63039D01*
X14529Y62310D01*
G37*
G36*
G01X73544Y63647D02*
Y59565D01*
G02X70944I-1300J-1095D01*
G01Y63647D01*
G02X73544I1300J1095D01*
G37*
G36*
G01X127713Y69708D02*
X107030Y49025D01*
Y43271D01*
G02X104430I-1300J-1095D01*
G01Y50103D01*
X125874Y71547D01*
X125883Y71615D01*
G02X127781Y69717I1687J-211D01*
G01X127713Y69708D01*
G37*
G36*
G01X34483Y59378D02*
X39472Y54389D01*
Y28208D01*
G02X36872I-1300J-1095D01*
G01Y53311D01*
X33405Y56778D01*
X23280D01*
G02Y59378I-1095J1300D01*
G01X34483D01*
G37*
G36*
G01X123169Y42208D02*
X120794Y39833D01*
X119215Y41412D01*
X118894D01*
X118840Y41370D01*
G02X118892Y44012I-1044J1342D01*
G01X120293D01*
X120794Y43511D01*
X123837Y46554D01*
X129829D01*
X134612Y51337D01*
Y57599D01*
G02X137212I1300J1095D01*
G01Y50259D01*
X130907Y43954D01*
X126839D01*
G03X126594Y43238I0J-400D01*
G02X126648Y43194I-1042J-1344D01*
G01X134158D01*
X134190Y43354D01*
G02X136067Y41327I1666J-340D01*
G01X135999Y41318D01*
X135275Y40594D01*
X126648D01*
G02X123852Y41920I-1095J1300D01*
G03X123169Y42208I-400J6D01*
G37*
G36*
G01X88052Y78787D02*
X101171Y65668D01*
G03X101854Y65951I283J283D01*
G01Y69871D01*
X115910Y83927D01*
Y85989D01*
X119377Y89455D01*
X119377Y89456D01*
G02X119383Y89461I922J-917D01*
G01X119704Y89783D01*
Y100555D01*
X122065Y102916D01*
X124946D01*
G02Y100316I1096J-1300D01*
G01X123143D01*
X122304Y99477D01*
Y88705D01*
X121221Y87623D01*
G02X121215Y87617I-922J916D01*
G01X118510Y84911D01*
Y83396D01*
G02Y83380I-1300J-8D01*
G01Y82849D01*
X118135Y82475D01*
X118135Y82474D01*
G02X118129Y82469I-922J917D01*
G01X104454Y68793D01*
Y62941D01*
G02X101467Y61635I-1300J-1096D01*
G01X101458Y61703D01*
X86213Y76948D01*
X86145Y76957D01*
G02X88043Y78855I211J1687D01*
G01X88052Y78787D01*
G37*
G54D14*
X142500Y53937D03*
G54D13*
X20056Y20392D03*
X137312Y137368D03*
%LPD*%
G75*
G54D10*
X38172Y27112D03*
X22184Y58078D03*
X15800Y61010D03*
Y90052D03*
X39096Y90920D03*
X65750Y68942D03*
X49342Y70398D03*
X61998Y117658D03*
X50000Y100000D03*
X72244Y58470D03*
X87924Y83556D03*
X72244Y64742D03*
X86356Y78644D03*
X96884Y92516D03*
X92460Y114080D03*
X117796Y42712D03*
X105730Y42176D03*
X125552Y41894D03*
X103154Y61846D03*
X127570Y71404D03*
X112842Y105618D03*
X103994Y92516D03*
X126042Y101616D03*
X135912Y58694D03*
X135856Y43014D03*
X142500Y53937D03*
X140336Y82884D03*
X133448Y105730D03*
X136640Y129360D03*
G54D11*
X26004Y78091D03*
G54D12*
G01X38172Y27112D02*
Y53850D01*
X33944Y58078D01*
X22184D01*
G01X15800Y61010D02*
X13990D01*
X12500Y62500D01*
Y78091D01*
X26004D01*
G01X72244Y58470D02*
Y64742D01*
G01X87924Y83556D02*
X96884Y92516D01*
G01X86356Y78644D02*
X103154Y61846D01*
G01X92460Y114080D02*
X104380D01*
X112842Y105618D01*
G01X117796Y42712D02*
X119754D01*
X120794Y41672D01*
X124376Y45254D01*
X130368D01*
X135912Y50798D01*
Y58694D01*
G01X105730Y42176D02*
Y49564D01*
X127570Y71404D01*
G01X125552Y41894D02*
X134736D01*
X135856Y43014D01*
G01X126042Y101616D02*
X122604D01*
X121004Y100016D01*
Y89244D01*
X117210Y85450D01*
Y83388D01*
X103154Y69332D01*
Y61846D01*
G01X133448Y105730D02*
X117208D01*
X103994Y92516D01*
G01X136640Y129360D02*
Y111554D01*
X140336Y107858D01*
Y82884D01*
M02*
