M48
INCH,TZ
T01C.012
T02C.013
;LEADER: 12 
;HEADER: 
;CODE  : ASCII 
;FILE  : DRILL-1-2.drl for  ... layers TOP and BOTTOM
;DESIGN: SCHEMA_PLACUTA.brd
;T01 Holesize 1. = 12.000000 Tolerance = +0.000000/-0.000000 PLATED MILS Quantity = 1
;T02 Holesize 2. = 13.000000 Tolerance = +0.000000/-0.000000 PLATED MILS Quantity = 29
%
G90
T01
X26004Y78091
T02
X15800Y61010
X126042Y101616
X103154Y61846
X86356Y78644
X136640Y129360
X140336Y82884
X142500Y53937
X135856Y43014
X125552Y41894
X127570Y71404
X105730Y42176
X135912Y58694
X117796Y42712
X134204Y105730
X103994Y92516
X72244Y64742
X76612Y57431
X112842Y105618
X92460Y114080
X96884Y92516
X87924Y83556
X49342Y70398
X65750Y68942
X39096Y90920
X50000Y100000
X61998Y117658
X15800Y90052
X38172Y27112
X22184Y58078
M30
