G04 ================== begin FILE IDENTIFICATION RECORD ==================*
G04 Layout Name:  SCHEMA_PLACUTA.brd*
G04 Film Name:    TOP*
G04 File Format:  Gerber RS274X*
G04 File Origin:  Cadence Allegro 17.2-S025*
G04 Origin Date:  Sat Jan 24 02:18:14 2026*
G04 *
G04 Layer:  ETCH/TOP*
G04 Layer:  PIN/TOP*
G04 Layer:  VIA CLASS/TOP*
G04 *
G04 Offset:    (0.000 0.000)*
G04 Mirror:    No*
G04 Mode:      Positive*
G04 Rotation:  0*
G04 FullContactRelief:  No*
G04 UndefLineWidth:     0.000*
G04 ================== end FILE IDENTIFICATION RECORD ====================*
%FSLAX25Y25*MOIN*%
%IR0*IPPOS*OFA0.00000B0.00000*MIA0B0*SFA1.00000B1.00000*%
%ADD13R,.06X.1*%
%ADD17R,.120079X.07087*%
%ADD22R,.017X.02*%
%ADD21R,.02X.017*%
%ADD11C,.024*%
%ADD16C,.026*%
%ADD19R,.037402X.043311*%
%ADD18R,.043311X.037402*%
%ADD10C,.03937*%
%ADD20R,.051181X.051181*%
%ADD12R,.037402X.057091*%
%ADD14R,.057091X.037402*%
%ADD23R,.051181X.07874*%
%ADD15R,.1X.06*%
%ADD24C,.005*%
%ADD25C,.012*%
%ADD26C,.016*%
G75*
%LPD*%
G75*
G54D10*
X20056Y20392D03*
X137312Y137368D03*
G54D20*
X68436Y137969D03*
Y128914D03*
G54D11*
X38172Y27112D03*
X22184Y58078D03*
X15800Y61010D03*
Y90052D03*
X39096Y90920D03*
X65750Y68942D03*
X49342Y70398D03*
X61998Y117658D03*
X50000Y100000D03*
X72244Y58470D03*
X87924Y83556D03*
X72244Y64742D03*
X86356Y78644D03*
X96884Y92516D03*
X92460Y114080D03*
X117796Y42712D03*
X105730Y42176D03*
X125552Y41894D03*
X103154Y61846D03*
X127570Y71404D03*
X112842Y105618D03*
X103994Y92516D03*
X126042Y101616D03*
X135912Y58694D03*
X135856Y43014D03*
X142500Y53937D03*
X140336Y82884D03*
X133448Y105730D03*
X136640Y129360D03*
G54D12*
X38741Y61774D03*
X21307Y111890D03*
X13433D03*
X35433Y102362D03*
X22441Y96850D03*
X14567D03*
X15813Y141542D03*
X23687D03*
X46615Y61774D03*
X69091Y50742D03*
X61437Y90000D03*
X53563D03*
X61987Y77116D03*
X54113D03*
X43307Y102362D03*
X98517Y47420D03*
X90643D03*
X76965Y50742D03*
X98563Y85000D03*
X106437D03*
X113979Y73644D03*
X106105D03*
X125011Y94980D03*
X117137D03*
G54D21*
X76500Y86200D03*
X83500Y90000D03*
X76500Y93700D03*
G54D22*
X91948Y104918D03*
X84448D03*
X88148Y111918D03*
G54D13*
X29916Y45282D03*
X16916D03*
X36290Y120514D03*
X68500Y30000D03*
X49290Y120514D03*
X98670Y24704D03*
X81500Y30000D03*
X111670Y24704D03*
X111438Y56902D03*
X124438D03*
G54D23*
X90680Y133442D03*
G54D14*
X38816Y75587D03*
Y83461D03*
X61550Y108491D03*
Y100617D03*
X94028Y74223D03*
Y66349D03*
X102034Y107651D03*
Y99777D03*
X142500Y46063D03*
Y53937D03*
X140336Y71815D03*
Y63941D03*
X143024Y91043D03*
X144144Y116129D03*
X143024Y98917D03*
X144144Y124003D03*
G54D24*
G01X14173Y100455D02*
X14567D01*
Y96850D01*
G01X32813Y102362D02*
Y102500D01*
G54D15*
X18504Y69091D03*
Y82091D03*
X122754Y112894D03*
Y125894D03*
G54D25*
G01X20916Y52782D02*
X16916Y48782D01*
Y45282D01*
G01X25916Y52782D02*
X29916Y48782D01*
Y45282D01*
G01X26004Y73091D02*
X22004Y69091D01*
X18504D01*
G01X26004Y78091D02*
X22004Y82091D01*
X18504D01*
G01X40290Y113014D02*
X36290Y117014D01*
Y120514D01*
G01X72500Y37500D02*
X68500Y33500D01*
Y30000D01*
G01X45290Y113014D02*
X49290Y117014D01*
Y120514D01*
G01X77500Y37500D02*
X81500Y33500D01*
Y30000D01*
G01X98670Y21204D02*
Y24704D01*
G01X111670Y21204D02*
Y24704D01*
G01X120438Y49402D02*
X124438Y53402D01*
Y56902D01*
G01X111438Y53402D02*
Y56902D01*
G01X124754Y112894D02*
X122754D01*
G01X130254Y121894D02*
X126254Y125894D01*
X122754D01*
G54D16*
X26004Y78091D03*
G54D26*
G01X38172Y27112D02*
X44050D01*
X46598Y24564D01*
Y19720D01*
G01X20916Y52782D02*
Y56810D01*
X22184Y58078D01*
G01X25916Y52782D02*
Y59410D01*
X24316Y61010D01*
X15800D01*
G01X14567Y96850D02*
Y91285D01*
X15800Y90052D01*
G01X39096Y90920D02*
Y86911D01*
X38816Y86631D01*
Y83461D01*
G01X38741Y61774D02*
X35571D01*
X35067Y62278D01*
X33608D01*
X26004Y69882D01*
Y73091D01*
G01D02*
X30269D01*
X33944Y69416D01*
X42734D01*
X45131Y71813D01*
Y74075D01*
X42349Y76857D01*
X40086D01*
X38816Y75587D01*
G01X43307Y102362D02*
Y95000D01*
X32500D01*
X30754Y93254D01*
Y86082D01*
X30354Y85682D01*
Y83610D01*
X30754Y83210D01*
Y80241D01*
X28604Y78091D01*
X26004D01*
G01X14173Y115354D02*
Y100455D01*
G01X53563Y90000D02*
X42516D01*
X41596Y90920D01*
X39096D01*
G01X32813Y102362D02*
X35433D01*
G01X32813D02*
X32263D01*
Y102500D01*
X30000D01*
Y96850D01*
X22441D01*
G01X21307Y111890D02*
Y116045D01*
X21848Y116586D01*
Y118722D01*
X27224Y124098D01*
Y132384D01*
X23687Y135921D01*
Y141542D01*
G01X40290Y113014D02*
X37690D01*
X36566Y111890D01*
X21307D01*
G01X15813Y141542D02*
Y133519D01*
X16929Y132403D01*
Y127559D01*
G01X68436Y137969D02*
X65875Y135408D01*
X61718D01*
X58806Y132496D01*
X42428D01*
X41112Y133812D01*
Y138656D01*
G01X47718Y33384D02*
X60816D01*
X64200Y30000D01*
X68500D01*
G01X72500Y37500D02*
X56165Y53835D01*
Y63136D01*
G01X63251D02*
Y56582D01*
X65317Y54516D01*
X66302D01*
X69091Y51726D01*
Y50742D01*
G01X46615Y61774D02*
Y52320D01*
X47270Y51666D01*
Y46822D01*
G01X53563Y90000D02*
Y90985D01*
X50000Y94548D01*
Y100000D01*
G01X71916Y77963D02*
Y77668D01*
X69127Y74878D01*
Y73962D01*
X65750Y70585D01*
Y68942D01*
G01X49342Y70398D02*
X51324Y72380D01*
Y73342D01*
X54113Y76132D01*
Y77116D01*
G01X56165Y63136D02*
X55869D01*
X53080Y65925D01*
Y66660D01*
X49342Y70398D01*
G01X53563Y90000D02*
Y81821D01*
X54113Y81271D01*
Y77116D01*
G01X65750Y68942D02*
X67792Y66900D01*
Y63850D01*
X69392Y62250D01*
X71200D01*
X71208Y62242D01*
X73280D01*
X73288Y62250D01*
X75264D01*
X76864Y63850D01*
Y67202D01*
X78464Y68802D01*
X80601D01*
X82100Y70301D01*
G01X63251Y63136D02*
Y67905D01*
X63250Y67906D01*
Y69978D01*
X63251Y69979D01*
Y71697D01*
X61987Y72961D01*
Y77116D01*
G01X80196Y75987D02*
Y77956D01*
X75268Y82884D01*
X66771D01*
X61987Y78100D01*
Y77116D01*
G01X76350Y86200D02*
X74200D01*
X73880Y85880D01*
X70984D01*
X66864Y90000D01*
X61437D01*
G01X68436Y128914D02*
Y124096D01*
X64742Y120402D01*
G01D02*
X61998Y117658D01*
G01X64742Y120402D02*
X83108D01*
X90680Y127974D01*
Y133442D01*
G01X61550Y108491D02*
X69940D01*
X70028Y108403D01*
X73198D01*
G01X61550Y100617D02*
X62535D01*
X65324Y97828D01*
Y97226D01*
X76350Y86200D01*
G01X73198Y115489D02*
X70028D01*
X67553Y113014D01*
X45290D01*
G01D02*
X43307Y111031D01*
Y102362D01*
G01X68436Y137969D02*
X63999D01*
X62992Y138976D01*
Y147500D01*
X95000D01*
Y140000D01*
X97322D01*
Y140158D01*
X100787D01*
G01X111438Y53402D02*
Y49725D01*
X112910Y48253D01*
Y40944D01*
X98670Y26704D01*
Y24704D01*
G01X72244Y58470D02*
X77651D01*
X82100Y62919D01*
Y63215D01*
G01X76965Y50742D02*
X84151D01*
X87473Y47420D01*
X90643D01*
G01X77500Y37500D02*
X90000D01*
X92500Y40000D01*
X103554D01*
X105730Y42176D01*
G01X111438Y56902D02*
X107138D01*
X106522Y57518D01*
X104460D01*
X98517Y51575D01*
Y47420D01*
G01X82100Y70006D02*
Y70301D01*
G01X106105Y73644D02*
X104961Y72500D01*
X102663D01*
X101063Y74100D01*
Y80000D01*
X106437D01*
Y85000D01*
G01X84448Y104918D02*
Y93098D01*
X83500Y92150D01*
Y90000D01*
G01X87924Y83556D02*
Y87876D01*
X85800Y90000D01*
X83500D01*
G01X96884Y92516D02*
Y86679D01*
X98563Y85000D01*
G01X71916Y70877D02*
X75086D01*
X80196Y75987D01*
G01X72244Y64742D02*
Y70549D01*
X71916Y70877D01*
G01X80196Y75987D02*
X85701D01*
X90635Y71053D01*
X93539D01*
X94028Y70564D01*
Y66349D01*
G01X91948Y104918D02*
Y79473D01*
X94028Y77393D01*
Y74223D01*
G01X76350Y86200D02*
X76500D01*
G01D02*
X78800D01*
X86356Y78644D01*
G01X73198Y108403D02*
Y96852D01*
X76350Y93700D01*
X76500D01*
G01X88148Y111918D02*
X90298D01*
X92460Y114080D01*
G01X103490Y127639D02*
X103225Y127904D01*
X99066D01*
X96322Y125160D01*
Y117938D01*
X102146Y112114D01*
Y111554D01*
X102034Y111442D01*
Y107651D01*
G01X125552Y26929D02*
Y26633D01*
X128341Y23844D01*
X128637D01*
X129981Y22500D01*
X142500D01*
X147500Y27500D01*
Y28543D01*
X146628Y29415D01*
Y29711D01*
X143839Y32500D01*
X143543D01*
G01X125552Y34311D02*
X122763Y37100D01*
X120086D01*
X113990Y31004D01*
X113270D01*
X111670Y29404D01*
Y24704D01*
G01X117796Y42712D02*
Y44056D01*
X120438Y46698D01*
Y49402D01*
G01X125552Y34311D02*
Y41894D01*
G01Y34015D02*
Y34311D01*
G01X103154Y61846D02*
X106494D01*
X111438Y56902D01*
G01X127570Y71404D02*
X125330Y73644D01*
X113979D01*
G01X127570Y71404D02*
Y73904D01*
X127456Y74018D01*
Y79524D01*
X132720Y84788D01*
Y93380D01*
X131120Y94980D01*
X125011D01*
G01X117137D02*
Y95964D01*
G01Y94980D02*
X116936Y94778D01*
X111496D01*
X109896Y96378D01*
Y110681D01*
X103490Y117087D01*
Y120553D01*
G01X117137Y94980D02*
X117518Y95361D01*
Y100942D01*
X112842Y105618D01*
G01X102034Y99777D02*
Y94476D01*
X103994Y92516D01*
G01X126042Y101616D02*
X129215D01*
X130815Y103216D01*
Y106833D01*
X124754Y112894D01*
G01X130254Y121894D02*
X130962Y121186D01*
X131848D01*
X133448Y119586D01*
Y105730D01*
G01X103490Y127639D02*
Y132603D01*
X107874Y136987D01*
Y140158D01*
G01X136640Y129360D02*
X132513Y133487D01*
X110938D01*
X105090Y127639D01*
X103490D01*
G01X140336Y63941D02*
X139352D01*
X135912Y60502D01*
Y58694D01*
G01X143543Y32500D02*
Y35670D01*
X142500D01*
Y46063D01*
G01X143024Y91043D02*
X144008D01*
X146798Y88254D01*
Y87269D01*
X147500Y86567D01*
Y46600D01*
X145900Y45000D01*
X143563D01*
X142500Y46063D01*
G01Y53937D02*
X141708Y54729D01*
X136987D01*
X135856Y53598D01*
Y43014D01*
G01X140336Y71815D02*
X139925Y71404D01*
X133312D01*
X131712Y69804D01*
Y40415D01*
X136457Y35670D01*
Y32500D01*
G01X140336Y71815D02*
Y82884D01*
G01X144144Y116129D02*
Y103207D01*
X143024Y102087D01*
Y98917D01*
G01X136640Y129360D02*
X142432D01*
X144032Y127760D01*
Y124115D01*
X144144Y124003D01*
G54D17*
X16929Y127559D03*
X41112Y138656D03*
X46598Y19720D03*
X47718Y33384D03*
X47270Y46822D03*
G54D18*
X56165Y63136D03*
X63251D03*
X100787Y140158D03*
X107874D03*
X143543Y32500D03*
X136457D03*
G54D19*
X71916Y77963D03*
Y70877D03*
X82100Y70301D03*
Y63215D03*
X73198Y115489D03*
Y108403D03*
X125552Y26929D03*
Y34015D03*
X103490Y120553D03*
Y127639D03*
M02*
